<?xml version="1.0" encoding="UTF-8"?>
<!--Generator: Apple Native CoreSVG 232.5-->
<!DOCTYPE svg
PUBLIC "-//W3C//DTD SVG 1.1//EN"
       "http://www.w3.org/Graphics/SVG/1.1/DTD/svg11.dtd">
<svg version="1.1" xmlns="http://www.w3.org/2000/svg" xmlns:xlink="http://www.w3.org/1999/xlink" width="3300" height="2200">
 <!--glyph: "", point size: 100.0, font version: "19.2d2e1", template writer version: "128"-->
 <style>.monochrome-0 {-sfsymbols-motion-group:1}
.monochrome-1 {opacity:0.0;-sfsymbols-clear-behind:true;-sfsymbols-motion-group:0}
.monochrome-2 {-sfsymbols-motion-group:0}

.multicolor-0:tintColor {-sfsymbols-motion-group:1}
.multicolor-1:tintColor {opacity:0.0;-sfsymbols-clear-behind:true;-sfsymbols-motion-group:0}
.multicolor-2:tintColor {-sfsymbols-motion-group:0}

.hierarchical-0:secondary {-sfsymbols-motion-group:1}
.hierarchical-1:primary {opacity:0.0;-sfsymbols-clear-behind:true;-sfsymbols-motion-group:0}
.hierarchical-2:primary {-sfsymbols-motion-group:0}

.SFSymbolsPreviewWireframe {fill:none;opacity:1.0;stroke:black;stroke-width:0.5}
</style>
 <g id="Notes">
  <rect height="2200" id="artboard" style="fill:white;opacity:1" width="3300" x="0" y="0"/>
  <line style="fill:none;stroke:black;opacity:1;stroke-width:0.5;" x1="263" x2="3036" y1="292" y2="292"/>
  <text style="stroke:none;fill:black;font-family:sans-serif;font-size:13;font-weight:bold;" transform="matrix(1 0 0 1 263 322)">Weight/Scale Variations</text>
  <text style="stroke:none;fill:black;font-family:sans-serif;font-size:13;text-anchor:middle;" transform="matrix(1 0 0 1 559.711 322)">Ultralight</text>
  <text style="stroke:none;fill:black;font-family:sans-serif;font-size:13;text-anchor:middle;" transform="matrix(1 0 0 1 856.422 322)">Thin</text>
  <text style="stroke:none;fill:black;font-family:sans-serif;font-size:13;text-anchor:middle;" transform="matrix(1 0 0 1 1153.13 322)">Light</text>
  <text style="stroke:none;fill:black;font-family:sans-serif;font-size:13;text-anchor:middle;" transform="matrix(1 0 0 1 1449.84 322)">Regular</text>
  <text style="stroke:none;fill:black;font-family:sans-serif;font-size:13;text-anchor:middle;" transform="matrix(1 0 0 1 1746.56 322)">Medium</text>
  <text style="stroke:none;fill:black;font-family:sans-serif;font-size:13;text-anchor:middle;" transform="matrix(1 0 0 1 2043.27 322)">Semibold</text>
  <text style="stroke:none;fill:black;font-family:sans-serif;font-size:13;text-anchor:middle;" transform="matrix(1 0 0 1 2339.98 322)">Bold</text>
  <text style="stroke:none;fill:black;font-family:sans-serif;font-size:13;text-anchor:middle;" transform="matrix(1 0 0 1 2636.69 322)">Heavy</text>
  <text style="stroke:none;fill:black;font-family:sans-serif;font-size:13;text-anchor:middle;" transform="matrix(1 0 0 1 2933.4 322)">Black</text>
  <line style="fill:none;stroke:black;opacity:1;stroke-width:0.5;" x1="263" x2="3036" y1="1903" y2="1903"/>
  <g transform="matrix(0.2 0 0 0.2 263 1933)">
   <path d="m46.2402 4.15039c21.5332 0 39.4531-17.8711 39.4531-39.4043s-17.9688-39.4043-39.502-39.4043c-21.4844 0-39.3555 17.8711-39.3555 39.4043s17.9199 39.4043 39.4043 39.4043Zm0-7.42188c-17.7246 0-31.8848-14.209-31.8848-31.9824s14.1113-31.9824 31.8359-31.9824c17.7734 0 32.0312 14.209 32.0312 31.9824s-14.209 31.9824-31.9824 31.9824Zm-17.9688-31.9824c0 2.14844 1.51367 3.61328 3.75977 3.61328h10.498v10.5957c0 2.19727 1.46484 3.71094 3.61328 3.71094 2.24609 0 3.71094-1.51367 3.71094-3.71094v-10.5957h10.5957c2.19727 0 3.71094-1.46484 3.71094-3.61328 0-2.19727-1.51367-3.71094-3.71094-3.71094h-10.5957v-10.5469c0-2.24609-1.46484-3.75977-3.71094-3.75977-2.14844 0-3.61328 1.51367-3.61328 3.75977v10.5469h-10.498c-2.24609 0-3.75977 1.51367-3.75977 3.71094Z"/>
  </g>
  <g transform="matrix(0.2 0 0 0.2 281.506 1933)">
   <path d="m58.5449 14.5508c27.2461 0 49.8047-22.6074 49.8047-49.8047 0-27.2461-22.6074-49.8047-49.8535-49.8047-27.1973 0-49.7559 22.5586-49.7559 49.8047 0 27.1973 22.6074 49.8047 49.8047 49.8047Zm0-8.30078c-23.0469 0-41.4551-18.457-41.4551-41.5039s18.3594-41.5039 41.4062-41.5039 41.5527 18.457 41.5527 41.5039-18.457 41.5039-41.5039 41.5039Zm-22.6562-41.5039c0 2.39258 1.66016 4.00391 4.15039 4.00391h14.3555v14.4043c0 2.44141 1.66016 4.15039 4.05273 4.15039 2.44141 0 4.15039-1.66016 4.15039-4.15039v-14.4043h14.4043c2.44141 0 4.15039-1.61133 4.15039-4.00391 0-2.44141-1.70898-4.15039-4.15039-4.15039h-14.4043v-14.3555c0-2.49023-1.70898-4.19922-4.15039-4.19922-2.39258 0-4.05273 1.70898-4.05273 4.19922v14.3555h-14.3555c-2.49023 0-4.15039 1.70898-4.15039 4.15039Z"/>
  </g>
  <g transform="matrix(0.2 0 0 0.2 304.924 1933)">
   <path d="m74.8535 28.3203c34.8145 0 63.623-28.8086 63.623-63.5742 0-34.8145-28.8574-63.623-63.6719-63.623-34.7656 0-63.5254 28.8086-63.5254 63.623 0 34.7656 28.8086 63.5742 63.5742 63.5742Zm0-9.08203c-30.1758 0-54.4434-24.3164-54.4434-54.4922 0-30.2246 24.2188-54.4922 54.3945-54.4922 30.2246 0 54.541 24.2676 54.541 54.4922 0 30.1758-24.2676 54.4922-54.4922 54.4922Zm-28.8574-54.4922c0 2.58789 1.85547 4.39453 4.58984 4.39453h19.7266v19.7754c0 2.68555 1.85547 4.58984 4.44336 4.58984 2.68555 0 4.54102-1.85547 4.54102-4.58984v-19.7754h19.7754c2.68555 0 4.58984-1.80664 4.58984-4.39453 0-2.73438-1.85547-4.58984-4.58984-4.58984h-19.7754v-19.7266c0-2.73438-1.85547-4.63867-4.54102-4.63867-2.58789 0-4.44336 1.9043-4.44336 4.63867v19.7266h-19.7266c-2.73438 0-4.58984 1.85547-4.58984 4.58984Z"/>
  </g>
  <text style="stroke:none;fill:black;font-family:sans-serif;font-size:13;font-weight:bold;" transform="matrix(1 0 0 1 263 1953)">Design Variations</text>
  <text style="stroke:none;fill:black;font-family:sans-serif;font-size:13;" transform="matrix(1 0 0 1 263 1971)">Symbols are supported in up to nine weights and three scales.</text>
  <text style="stroke:none;fill:black;font-family:sans-serif;font-size:13;" transform="matrix(1 0 0 1 263 1989)">For optimal layout with text and other symbols, vertically align</text>
  <text style="stroke:none;fill:black;font-family:sans-serif;font-size:13;" transform="matrix(1 0 0 1 263 2007)">symbols with the adjacent text.</text>
  <line style="fill:none;stroke:#00AEEF;stroke-width:0.5;opacity:1.0;" x1="776" x2="776" y1="1919" y2="1933"/>
  <g transform="matrix(0.2 0 0 0.2 776 1933)">
   <path d="m16.5527 0.78125c2.58789 0 3.85742-0.976562 4.78516-3.71094l6.29883-17.2363h28.8086l6.29883 17.2363c0.927734 2.73438 2.19727 3.71094 4.73633 3.71094 2.58789 0 4.24805-1.5625 4.24805-4.00391 0-0.830078-0.146484-1.61133-0.537109-2.63672l-22.9004-60.9863c-1.12305-2.97852-3.125-4.49219-6.25-4.49219-3.02734 0-5.07812 1.46484-6.15234 4.44336l-22.9004 61.084c-0.390625 1.02539-0.537109 1.80664-0.537109 2.63672 0 2.44141 1.5625 3.95508 4.10156 3.95508Zm13.4766-28.3691 11.8652-32.8613h0.244141l11.8652 32.8613Z"/>
  </g>
  <line style="fill:none;stroke:#00AEEF;stroke-width:0.5;opacity:1.0;" x1="792.836" x2="792.836" y1="1919" y2="1933"/>
  <text style="stroke:none;fill:black;font-family:sans-serif;font-size:13;font-weight:bold;" transform="matrix(1 0 0 1 776 1953)">Margins</text>
  <text style="stroke:none;fill:black;font-family:sans-serif;font-size:13;" transform="matrix(1 0 0 1 776 1971)">Leading and trailing margins on the left and right side of each symbol</text>
  <text style="stroke:none;fill:black;font-family:sans-serif;font-size:13;" transform="matrix(1 0 0 1 776 1989)">can be adjusted by modifying the x-location of the margin guidelines.</text>
  <text style="stroke:none;fill:black;font-family:sans-serif;font-size:13;" transform="matrix(1 0 0 1 776 2007)">Modifications are automatically applied proportionally to all</text>
  <text style="stroke:none;fill:black;font-family:sans-serif;font-size:13;" transform="matrix(1 0 0 1 776 2025)">scales and weights.</text>
  <g transform="matrix(0.2 0 0 0.2 1289 1933)">
   <path d="m14.209 9.32617 8.49609 8.54492c4.29688 4.3457 9.22852 4.05273 13.8672-1.07422l53.4668-58.9355-4.83398-4.88281-53.0762 58.3984c-1.75781 2.00195-3.41797 2.49023-5.76172 0.146484l-5.85938-5.81055c-2.34375-2.29492-1.80664-4.00391 0.195312-5.81055l57.373-54.0039-4.88281-4.83398-57.959 54.4434c-4.93164 4.58984-5.32227 9.47266-1.02539 13.8184Zm32.0801-90.9668c-2.09961 2.05078-2.24609 4.93164-1.07422 6.88477 1.17188 1.80664 3.4668 2.97852 6.68945 2.14844 7.32422-1.70898 14.9414-2.00195 22.0703 2.68555l-2.92969 7.27539c-1.70898 4.15039-0.830078 7.08008 1.85547 9.81445l11.4746 11.5723c2.44141 2.44141 4.49219 2.53906 7.32422 2.05078l5.32227-0.976562 3.32031 3.36914-0.195312 2.7832c-0.195312 2.49023 0.439453 4.39453 2.88086 6.78711l3.80859 3.71094c2.39258 2.39258 5.46875 2.53906 7.8125 0.195312l14.5508-14.5996c2.34375-2.34375 2.24609-5.32227-0.146484-7.71484l-3.85742-3.80859c-2.39258-2.39258-4.24805-3.17383-6.64062-2.97852l-2.88086 0.244141-3.22266-3.17383 1.2207-5.61523c0.634766-2.83203-0.146484-5.0293-3.07617-7.95898l-10.9863-10.9375c-16.6992-16.6016-38.8672-16.2109-53.3203-1.75781Zm7.4707 1.85547c12.1582-8.88672 28.6133-7.37305 39.7461 3.75977l12.1582 12.0605c1.17188 1.17188 1.36719 2.09961 1.02539 3.80859l-1.61133 7.42188 7.51953 7.42188 4.93164-0.292969c1.26953-0.0488281 1.66016 0.0488281 2.63672 1.02539l2.88086 2.88086-12.207 12.207-2.88086-2.88086c-0.976562-0.976562-1.12305-1.36719-1.07422-2.68555l0.341797-4.88281-7.4707-7.42188-7.61719 1.26953c-1.61133 0.341797-2.34375 0.195312-3.56445-0.976562l-10.0098-10.0098c-1.26953-1.17188-1.41602-2.00195-0.634766-3.85742l4.39453-10.4492c-7.8125-7.27539-17.9688-10.4004-28.125-7.42188-0.78125 0.195312-1.07422-0.439453-0.439453-0.976562Z"/>
  </g>
  <text style="stroke:none;fill:black;font-family:sans-serif;font-size:13;font-weight:bold;" transform="matrix(1 0 0 1 1289 1953)">Exporting</text>
  <text style="stroke:none;fill:black;font-family:sans-serif;font-size:13;" transform="matrix(1 0 0 1 1289 1971)">Symbols should be outlined when exporting to ensure the</text>
  <text style="stroke:none;fill:black;font-family:sans-serif;font-size:13;" transform="matrix(1 0 0 1 1289 1989)">design is preserved when submitting to Xcode.</text>
  <text id="template-version" style="stroke:none;fill:black;font-family:sans-serif;font-size:13;text-anchor:end;" transform="matrix(1 0 0 1 3036 1933)">Template v.5.0</text>
  <text style="stroke:none;fill:black;font-family:sans-serif;font-size:13;text-anchor:end;" transform="matrix(1 0 0 1 3036 1951)">Requires Xcode 15 or greater</text>
  <text id="descriptive-name" style="stroke:none;fill:black;font-family:sans-serif;font-size:13;text-anchor:end;" transform="matrix(1 0 0 1 3036 1969)">Generated from </text>
  <text style="stroke:none;fill:black;font-family:sans-serif;font-size:13;text-anchor:end;" transform="matrix(1 0 0 1 3036 1987)">Typeset at 100.0 points</text>
  <text style="stroke:none;fill:black;font-family:sans-serif;font-size:13;" transform="matrix(1 0 0 1 263 726)">Small</text>
  <text style="stroke:none;fill:black;font-family:sans-serif;font-size:13;" transform="matrix(1 0 0 1 263 1156)">Medium</text>
  <text style="stroke:none;fill:black;font-family:sans-serif;font-size:13;" transform="matrix(1 0 0 1 263 1586)">Large</text>
 </g>
 <g id="Guides">
  <g id="H-reference" style="fill:#27AAE1;stroke:none;" transform="matrix(1 0 0 1 339 696)">
   <path d="M0.993654 0L3.63775 0L29.3281-67.1323L30.0303-67.1323L30.0303-70.459L28.1226-70.459ZM11.6885-24.4799L46.9815-24.4799L46.2315-26.7285L12.4385-26.7285ZM55.1196 0L57.7637 0L30.6382-70.459L29.4326-70.459L29.4326-67.1323Z"/>
  </g>
  <line id="Baseline-S" style="fill:none;stroke:#27AAE1;opacity:1;stroke-width:0.5;" x1="263" x2="3036" y1="696" y2="696"/>
  <line id="Capline-S" style="fill:none;stroke:#27AAE1;opacity:1;stroke-width:0.5;" x1="263" x2="3036" y1="625.541" y2="625.541"/>
  <g id="H-reference" style="fill:#27AAE1;stroke:none;" transform="matrix(1 0 0 1 339 1126)">
   <path d="M0.993654 0L3.63775 0L29.3281-67.1323L30.0303-67.1323L30.0303-70.459L28.1226-70.459ZM11.6885-24.4799L46.9815-24.4799L46.2315-26.7285L12.4385-26.7285ZM55.1196 0L57.7637 0L30.6382-70.459L29.4326-70.459L29.4326-67.1323Z"/>
  </g>
  <line id="Baseline-M" style="fill:none;stroke:#27AAE1;opacity:1;stroke-width:0.5;" x1="263" x2="3036" y1="1126" y2="1126"/>
  <line id="Capline-M" style="fill:none;stroke:#27AAE1;opacity:1;stroke-width:0.5;" x1="263" x2="3036" y1="1055.54" y2="1055.54"/>
  <g id="H-reference" style="fill:#27AAE1;stroke:none;" transform="matrix(1 0 0 1 339 1556)">
   <path d="M0.993654 0L3.63775 0L29.3281-67.1323L30.0303-67.1323L30.0303-70.459L28.1226-70.459ZM11.6885-24.4799L46.9815-24.4799L46.2315-26.7285L12.4385-26.7285ZM55.1196 0L57.7637 0L30.6382-70.459L29.4326-70.459L29.4326-67.1323Z"/>
  </g>
  <line id="Baseline-L" style="fill:none;stroke:#27AAE1;opacity:1;stroke-width:0.5;" x1="263" x2="3036" y1="1556" y2="1556"/>
  <line id="Capline-L" style="fill:none;stroke:#27AAE1;opacity:1;stroke-width:0.5;" x1="263" x2="3036" y1="1485.54" y2="1485.54"/>
  <line id="left-margin-Ultralight-S" style="fill:none;stroke:#00AEEF;stroke-width:0.5;opacity:1.0;" x1="493.198" x2="493.198" y1="600.785" y2="720.121"/>
  <line id="right-margin-Ultralight-S" style="fill:none;stroke:#00AEEF;stroke-width:0.5;opacity:1.0;" x1="626.224" x2="626.224" y1="600.785" y2="720.121"/>
  <line id="left-margin-Regular-S" style="fill:none;stroke:#00AEEF;stroke-width:0.5;opacity:1.0;" x1="1380.29" x2="1380.29" y1="600.785" y2="720.121"/>
  <line id="right-margin-Regular-S" style="fill:none;stroke:#00AEEF;stroke-width:0.5;opacity:1.0;" x1="1519.4" x2="1519.4" y1="600.785" y2="720.121"/>
  <line id="left-margin-Black-S" style="fill:none;stroke:#00AEEF;stroke-width:0.5;opacity:1.0;" x1="2860.74" x2="2860.74" y1="600.785" y2="720.121"/>
  <line id="right-margin-Black-S" style="fill:none;stroke:#00AEEF;stroke-width:0.5;opacity:1.0;" x1="3006.06" x2="3006.06" y1="600.785" y2="720.121"/>
 </g>
 <g id="Symbols">
  <g id="Black-S" transform="matrix(1 0 0 1 2860.74 696)">
   <path class="monochrome-0 multicolor-0:tintColor hierarchical-0:secondary SFSymbolsPreviewWireframe" d="M94.043 6.93359C102.539 6.93359 107.959 2.14844 107.959-3.85742C107.959-17.041 99.6094-19.4336 87.9883-19.4336C80.8594-19.4336 79.4922-18.9453 78.2227-18.5059L75.6836-25.7812C70.9961-39.209 61.377-45.752 49.8047-45.752C48.2422-45.752 46.2891-45.752 44.2383-45.3125C41.2109-44.6289 39.8438-43.6035 39.8438-41.748C39.8438-38.6719 42.1875-36.5234 45.3125-36.5234C46.3867-36.5234 48.584-36.7676 49.9512-36.7676C57.7637-36.7676 63.2324-32.4707 67.6758-21.1914L72.3145-9.375C75.9766-10.1074 79.8828-10.791 87.207-10.791C93.6523-10.791 96.3867-8.00781 96.3867-5.41992C96.3867-4.39453 95.6055-3.07617 94.043-3.07617C89.9902-3.07617 86.6699-3.95508 82.373-3.95508C79.248-3.95508 73.291-3.80859 72.3633-3.80859C70.6055-3.80859 69.8242-3.90625 69.0918-4.73633L51.709-23.6816C38.7207-22.8516 31.3477-25.4395 26.3672-32.0801C23.1934-32.1289 20.8496-33.2031 20.8496-35.1074C20.8496-37.4023 23.877-38.4277 27.002-38.6719C30.957-50.0488 36.8164-55.2246 46.2402-55.2246C58.0078-55.2246 65.4297-47.2168 78.6621-41.1621C83.1543-39.209 87.5977-38.1836 90.2832-38.1836C97.5586-38.1836 102.246-42.2852 102.197-49.707L78.3203-67.4316C76.5137-68.75 76.2207-69.2871 76.2207-70.166C76.2207-71.9238 78.5156-72.7539 80.8594-72.7539C86.2305-72.7539 89.9414-70.5566 93.75-66.2109L107.617-50.3418C118.652-50.0488 125.098-42.4316 125.098-32.959C125.098-28.0273 123.145-26.709 115.283-26.709C111.182-26.709 105.322-28.2227 99.6582-31.25C91.5527-28.7109 83.4961-23.6816 79.7363-18.5547L88.7207-16.2109C91.6016-18.6523 95.5078-20.4102 98.7793-22.0703C105.176-18.5059 110.547-17.5293 115.088-17.5293C128.809-17.5293 135.547-22.9004 135.547-33.0078C135.547-46.6309 126.27-56.9824 112.109-58.1055L104.443-69.873C98.877-78.4668 91.4062-83.2031 80.7617-83.2031C73.2422-83.2031 64.502-79.1992 64.502-70.8496C64.502-66.9434 66.1133-64.6484 71.7285-60.791C75.6348-58.1055 87.8906-50.1465 91.4551-47.5586C91.1621-47.4609 90.7227-47.3633 90.332-47.3633C88.3301-47.3633 84.5215-48.7793 82.3242-50.4395C69.1895-56.8848 59.4727-65.8691 46.3379-65.8691C33.3984-65.8691 23.7793-58.8379 18.9941-44.7754C13.0371-43.9453 9.76562-39.7949 9.76562-34.375C9.76562-28.0273 14.3555-23.7305 21.3379-23.8281C25.5859-16.5527 35.498-12.1094 46.875-12.8418L60.9863 2.44141C63.916 5.61523 68.0176 6.44531 72.168 6.44531C75.4883 6.44531 79.0527 5.9082 82.6172 5.9082C87.0117 5.9082 90.3809 6.93359 94.043 6.93359ZM40.6738 11.6699C49.8047 11.6699 59.8633 7.91016 64.0625 2.63672L57.8125-3.4668C55.8105 0.292969 48.7305 2.63672 41.4062 2.63672C36.8652 2.63672 33.3496 1.31836 33.3496-1.26953C33.3496-2.44141 34.3262-3.41797 35.8398-3.41797C38.3301-3.41797 40.625-2.49023 44.0918-2.49023C48.4863-2.49023 53.418-3.41797 56.2988-5.27344L50.1953-11.7676C48.4375-11.3281 45.166-10.9863 42.9688-10.9863C37.8418-10.9863 35.9375-11.8164 32.959-11.8164C26.416-11.8164 22.2656-7.66602 22.2656-1.46484C22.2656 6.54297 29.5898 11.6699 40.6738 11.6699ZM112.598-35.2539C114.746-35.2539 116.504-37.0117 116.504-39.1602C116.504-41.3086 114.746-43.0664 112.598-43.0664C110.449-43.0664 108.691-41.3086 108.691-39.1602C108.691-37.0117 110.449-35.2539 112.598-35.2539Z"/>
   <path class="monochrome-1 multicolor-1:tintColor hierarchical-1:primary SFSymbolsPreviewWireframe" d="M41.9433-78.9962L116.656-4.28328L116.656-4.28328C120.323-0.616258 120.323 5.32916 116.656 8.99618L116.656 8.99618L116.656 8.99618C112.989 12.6632 107.044 12.6632 103.377 8.99618L28.6638-65.7167L28.6638-65.7167C24.9968-69.3837 24.9968-75.3292 28.6638-78.9962L28.6638-78.9962L28.6638-78.9962C32.3308-82.6632 38.2763-82.6632 41.9433-78.9962Z"/>
   <path class="monochrome-2 multicolor-2:tintColor hierarchical-2:primary SFSymbolsPreviewWireframe" d="M37.7926-74.8455L112.505-0.132565L112.505-0.132565C113.88 1.24208 113.88 3.47082 112.505 4.84547L112.505 4.84547L112.505 4.84547C111.131 6.22011 108.902 6.22011 107.527 4.84547L32.8145-69.8674L32.8145-69.8674C31.4399-71.2421 31.4399-73.4708 32.8145-74.8455L32.8145-74.8455L32.8145-74.8455C34.1892-76.2201 36.4179-76.2201 37.7926-74.8455Z"/>
  </g>
  <g id="Regular-S" transform="matrix(1 0 0 1 1380.29 696)">
   <path class="monochrome-0 multicolor-0:tintColor hierarchical-0:secondary SFSymbolsPreviewWireframe" d="M91.8945 2.29492C100.293 2.29492 102.832-2.14844 102.832-6.83594C102.832-15.4785 95.9473-19.873 81.0059-19.873C77.8809-19.873 76.0254-19.7266 74.707-19.5801L71.8262-26.6113C66.3086-40.1855 57.0312-45.1172 47.6562-45.1172C46.0938-45.1172 44.3848-45.1172 42.6758-44.7266C40.5273-44.2871 39.7461-43.1152 39.7461-41.6992C39.7461-40.0879 40.9668-39.0137 42.6758-39.0625C44.4824-39.0625 45.3613-39.3066 47.3145-39.3066C56.0059-39.3066 61.8164-34.2773 67.041-22.2168L70.8496-13.2812C73.8281-13.8672 76.8555-14.3555 81.2012-14.3555C88.5742-14.3555 96.3867-12.6953 96.3867-7.37305C96.3867-5.37109 94.873-4.05273 91.8945-4.05273C88.0371-4.05273 85.4492-4.93164 82.1777-4.93164C77.1973-4.93164 74.1211-4.29688 72.168-4.29688C70.6543-4.29688 68.8965-4.39453 67.1387-5.85938L49.6094-21.0449C37.1582-20.459 28.2715-23.8281 23.2422-31.0547C19.4824-30.4688 16.6504-31.8359 16.6504-34.9609C16.6504-37.793 19.1895-39.7949 23.4375-39.5508C27.1973-52.4414 35.7422-58.252 47.5586-58.252C60.2051-58.252 73.9258-47.3633 82.8613-42.4316C85.0098-41.2109 87.8906-40.7715 89.5996-40.7715C94.1406-40.7715 97.6562-43.6035 100.342-49.0723L74.4141-65.2832C72.5098-66.4551 68.5547-69.4336 68.5547-70.3613C68.5547-72.5098 73.6816-73.9258 77.2461-73.9258C83.0566-73.9258 87.793-70.2637 92.4805-64.8926L104.59-50.9277C115.625-51.1719 123.438-43.2617 123.438-32.9102C123.438-26.2207 120.264-24.2188 112.598-24.2188C107.812-24.2188 102.441-26.0742 97.4609-28.8086C90.2344-27.4902 82.2266-24.0723 75.8789-19.1895L80.9082-16.5039C87.0605-19.873 93.0664-22.1191 96.3867-22.998C100.977-20.2637 107.666-18.5059 112.354-18.5547C122.607-18.6523 129.346-21.875 129.346-32.959C129.346-46.1426 119.482-55.7617 107.617-56.1035L99.5117-66.8945C92.8223-75.7324 86.084-80.6641 77.1484-80.6641C70.3613-80.6641 60.5469-76.9043 60.5469-71.3379C60.5469-66.5039 65.9668-63.2324 70.4102-60.4004C75.8301-56.9336 83.7402-52.3438 90.9668-48.1445C90.4297-47.7539 89.8438-47.4609 89.0137-47.4609C88.1348-47.4609 86.6699-48.0469 85.1074-48.9258C68.7012-58.0078 59.4727-65.1855 47.6074-65.1855C33.1055-65.1855 22.7051-57.8613 17.9199-43.6523C13.0859-42.5293 9.76562-39.3555 9.76562-34.375C9.76562-28.1738 14.8926-25.0977 19.7266-24.8535C22.9492-19.4336 33.1543-13.6719 46.6309-14.8926L63.7207-0.439453C65.8203 1.31836 68.0664 2.29492 72.0215 2.29492C75.3906 2.29492 77.7832 1.26953 82.4219 1.26953C86.5723 1.26953 88.623 2.29492 91.8945 2.29492ZM44.9707 6.49414C53.4668 6.49414 60.8398 4.29688 66.6504-2.29492L61.1816-5.9082C58.0566-1.80664 52.2461 0.634766 44.7266 0.634766C39.6973 0.634766 36.3281-1.17188 36.3281-4.00391C36.3281-5.37109 37.2559-6.44531 39.2578-6.44531C41.4062-6.44531 43.7012-6.05469 46.0449-6.05469C50.7812-6.05469 53.6133-6.49414 56.8359-9.96094L52.2461-14.0625C50.2441-11.8652 48.9258-11.4746 47.2168-11.4746C44.9707-11.5234 42.5781-12.1582 39.6484-12.1582C34.082-12.1582 30.0781-8.93555 30.0781-4.05273C30.0781 2.73438 36.084 6.49414 44.9707 6.49414ZM109.814-35.1074C111.816-35.1074 113.428-36.7188 113.428-38.7207C113.428-40.6738 111.816-42.334 109.814-42.334C107.861-42.334 106.201-40.6738 106.201-38.7207C106.201-36.7188 107.861-35.1074 109.814-35.1074Z"/>
   <path class="monochrome-1 multicolor-1:tintColor hierarchical-1:primary SFSymbolsPreviewWireframe" d="M40.2348-75.8955L110.451-5.67982L110.451-5.67982C113.647-2.48338 113.647 2.69908 110.451 5.89552L110.451 5.89552L110.451 5.89552C107.254 9.09196 102.072 9.09196 98.8752 5.89552L28.6595-64.3202L28.6595-64.3202C25.463-67.5166 25.463-72.6991 28.6595-75.8955L28.6595-75.8955L28.6595-75.8955C31.8559-79.092 37.0384-79.092 40.2348-75.8955Z"/>
   <path class="monochrome-2 multicolor-2:tintColor hierarchical-2:primary SFSymbolsPreviewWireframe" d="M36.8407-72.5014L107.056-2.2857L107.056-2.2857C108.378-0.96378 108.378 1.17948 107.056 2.50141L107.056 2.50141L107.056 2.50141C105.734 3.82333 103.591 3.82333 102.269 2.50141L32.0536-67.7143L32.0536-67.7143C30.7317-69.0362 30.7317-71.1795 32.0536-72.5014L32.0536-72.5014L32.0536-72.5014C33.3755-73.8233 35.5188-73.8233 36.8407-72.5014Z"/>
  </g>
  <g id="Ultralight-S" transform="matrix(1 0 0 1 493.198 696)">
   <path class="monochrome-0 multicolor-0:tintColor hierarchical-0:secondary SFSymbolsPreviewWireframe" d="M88.8521-1.9736C94.4351-1.9736 98.2911-4.37352 98.2911-7.69872C98.2911-14.2525 90.044-19.0103 78.8716-19.0103C75.4741-19.0103 73.7095-18.773 71.8916-18.354L69.4649-23.6143C62.4034-38.8233 53.4893-42.8013 44.1143-42.8013C42.6426-42.8013 40.7066-42.6651 39.7696-42.4107C38.938-42.1983 38.4746-41.8438 38.4746-41.2451C38.4746-40.5874 39.0596-40.1943 39.7241-40.334C40.8042-40.561 42.6367-40.6689 44.0904-40.6689C52.6909-40.6689 60.5903-37.1836 67.4497-22.6255L70.6226-15.8696C73.1016-16.4555 74.7666-16.853 78.8853-16.853C88.6196-16.853 96.1143-12.9224 96.1143-7.73633C96.1143-5.73437 93.1021-4.14355 88.8521-4.14355C85.7666-4.14355 82.543-5.34033 78.9536-5.34033C74.8814-5.34033 72.3501-4.16065 69.2163-4.16065C66.522-4.16065 63.856-5.07568 61.1446-7.08544L45.795-18.3203C34.7061-17.8252 25.2744-20.4224 19.564-29.1929C14.8052-29.061 11.9732-31.2456 11.9732-34.8247C11.9732-38.0654 14.5577-40.1128 18.6695-39.9141C23.3374-53.1226 32.291-59.9775 44.6978-59.9775C56.2998-59.9775 65.4341-53.6298 76.4585-46.791C80.8321-44.1172 83.3042-43.1782 86.0122-43.1782C88.6914-43.1782 90.981-45.102 95.3467-49.7534L71.9619-63.3306C65.5621-67.0454 62.379-69.6152 62.379-71.1787C62.379-73.9629 68.1416-76.8774 73.6133-76.8774C80.5591-76.8774 87.0664-73.1245 91.5723-66.6182L101.593-52.1538C111.447-53.8511 121.122-44.0791 121.122-32.4561C121.122-25.4033 118.039-23.0381 108.465-23.0381C102.409-23.0381 96.084-25.8018 92.3296-30.1709C84.9668-25.9917 78.9116-21.9834 74.2896-18.6445L75.6407-17.0488C80.2945-20.2817 86.5274-24.3896 91.8003-27.5844C96.4356-23.2607 102.626-20.9126 108.448-20.916C119.065-20.9228 123.261-23.9639 123.261-32.4595C123.261-44.8711 113.307-55.353 102.622-54.3779L93.4268-67.7573C88.5083-74.9605 81.316-79.0747 73.6065-79.0747C66.8194-79.0747 60.1382-75.3604 60.1382-71.2471C60.1382-68.5019 63.6509-65.8662 70.8188-61.5356C77.7827-57.4785 84.8301-53.3428 91.8296-49.3252C88.9312-46.4824 87.6187-45.3721 86.0166-45.3721C83.6846-45.3721 81.6748-46.1397 77.524-48.6987C66.2036-55.6919 56.8843-62.1885 44.7012-62.1885C31.7886-62.1885 22.2056-55.1367 17.148-41.9722C12.6772-41.6211 9.76562-38.856 9.76562-34.7837C9.76562-30.2627 13.167-27.3227 18.4097-27.0332C24.2661-18.7524 33.9717-15.6245 45.0415-16.1641L59.9063-5.25289C62.9141-3.08639 66.023-1.9736 69.2061-1.9736C71.6216-1.9736 75.0132-3.18063 78.9707-3.18063C83.1211-3.18063 85.3081-1.9736 88.8521-1.9736ZM43.0635 1.81693C49.2891 1.81693 55.8902 0.346223 61.292-5.06492L59.5923-6.49853C54.7871-1.57959 48.8858-0.31884 43.0464-0.31884C36.2461-0.31884 32.3321-2.80663 32.3321-6.81931C32.3321-9.0947 33.7593-10.7138 36.8965-10.7138C39.4082-10.7138 42.1118-9.27878 46.0903-9.27878C49.646-9.27878 51.9785-9.9907 53.7935-10.8691L51.7466-12.5186C49.9263-11.8198 48.3809-11.3838 46.127-11.3838C42.3823-11.3872 39.6719-12.8394 36.9238-12.8394C32.6743-12.8394 30.1689-10.3887 30.1689-6.82273C30.1689-1.44333 35.1304 1.81693 43.0635 1.81693ZM106.817-35.8794C108.274-35.8794 109.522-37.1274 109.522-38.6299C109.522-40.1289 108.274-41.3804 106.817-41.3804C105.318-41.3804 104.067-40.1289 104.067-38.6299C104.067-37.1274 105.318-35.8794 106.817-35.8794Z"/>
   <path class="monochrome-1 multicolor-1:tintColor hierarchical-1:primary SFSymbolsPreviewWireframe" d="M34.52-72.862L104.375-3.00695L104.375-3.00695C105.996-1.38628 105.996 1.24136 104.375 2.86203L104.375 2.86203L104.375 2.86203C102.754 4.48271 100.127 4.48271 98.506 2.86203L28.651-66.993L28.651-66.993C27.0303-68.6137 27.0303-71.2414 28.651-72.862L28.651-72.862L28.651-72.862C30.2716-74.4827 32.8993-74.4827 34.52-72.862Z"/>
   <path class="monochrome-2 multicolor-2:tintColor hierarchical-2:primary SFSymbolsPreviewWireframe" d="M32.3774-70.7195L102.232-0.86442L102.232-0.86442C102.67-0.427033 102.67 0.282112 102.232 0.719499L102.232 0.719499L102.232 0.719499C101.795 1.15689 101.086 1.15689 100.649 0.719499L30.7935-69.1356L30.7935-69.1356C30.3561-69.573 30.3561-70.2821 30.7935-70.7195L30.7935-70.7195L30.7935-70.7195C31.2309-71.1569 31.94-71.1569 32.3774-70.7195Z"/>
  </g>
 </g>
</svg>
